# xmcd CD database file
#
# Track frame offsets:
#	150
#	33360
#	51226
#	78301
#	100700
#	126754
#	154426
#	186672
#	209403
#	228789
#	258128
#
# Disc length: 3741 seconds
#
# Revision: 0
# Processed by: cddbd v1.4PL0 Copyright (c) Steve Scherf et al.
# Submitted via: CDex 1.50Beta7
#
DISCID=900e9b0b
DTITLE=Deep Forest - Intellectual Boheme Music
DYEAR=2002
DGENRE=New Age
TTITLE0=Sweet Lullaby (Apollo Mix)
TTITLE1=Endangered Species (Galleon Remix)
TTITLE2=Huahine Reggae (Pacifique Mix)
TTITLE3=Tri Martolod (Love Palace Mix)
TTITLE4=Ti Eliz Iza (Paradise Reggae Mix)
TTITLE5=Sweet Lullaby (Ambient Mix)
TTITLE6=Deep Forest (Sunrise At Alcatraz Mix)
TTITLE7=Overture (Round The Huahine Mix)
TTITLE8=Forest Hymn (Apollo Mix)
TTITLE9=Deep Forest (Dream City Mix)
TTITLE10=Sweet Lullaby (Q-Bass Mix)
EXTD=YEAR: 2002
EXTT0=
EXTT1=
EXTT2=
EXTT3=
EXTT4=
EXTT5=
EXTT6=
EXTT7=
EXTT8=
EXTT9=
EXTT10=
PLAYORDER=
